<svg width="40" height="40" viewBox="0 0 40 40" fill="none" xmlns="http://www.w3.org/2000/svg">
<path fill-rule="evenodd" clip-rule="evenodd" d="M0 0V40H40V0H0Z" fill="#002277"/>
<path fill-rule="evenodd" clip-rule="evenodd" d="M12 34C12 35.1046 11.1046 36 10 36C8.89543 36 8 35.1046 8 34C8 32.8954 8.89543 32 10 32C11.1046 32 12 32.8954 12 34ZM19 34C19 35.1046 18.1046 36 17 36C15.8954 36 15 35.1046 15 34C15 32.8954 15.8954 32 17 32C18.1046 32 19 32.8954 19 34ZM19 22C19 22.5523 18.5523 23 18 23H9C8.44772 23 8 22.5523 8 22C8 21.4477 8.44772 21 9 21H18C18.5523 21 19 21.4477 19 22ZM23 15C23.5523 15 24 15.4477 24 16C24 16.5523 23.5523 17 23 17H9C8.44772 17 8 16.5523 8 16C8 15.4477 8.44772 15 9 15H23Z" fill="white"/>
<path fill-rule="evenodd" clip-rule="evenodd" d="M30.2 11.4C30.3889 11.1482 30.6852 11 31 11H34C34.5523 11 35 11.4477 35 12C35 12.5523 34.5523 13 34 13H31.5L19.8 28.6C19.6111 28.8518 19.3148 29 19 29H9C8.44772 29 8 28.5523 8 28C8 27.4477 8.44772 27 9 27H18.5L30.2 11.4Z" fill="white"/>
</svg>
