<svg width="40" height="40" viewBox="0 0 40 40" fill="none" xmlns="http://www.w3.org/2000/svg">
<path fill-rule="evenodd" clip-rule="evenodd" d="M0 0V40H40V0H0Z" fill="#002277"/>
<path fill-rule="evenodd" clip-rule="evenodd" d="M19.5854 25.0244C18.7585 25.0244 17.9363 25.1973 17.1645 25.5369C16.3923 25.8768 15.6819 26.3787 15.0776 27.0208C14.4729 27.6632 13.987 28.4328 13.6533 29.2888C13.3195 30.1449 13.1463 31.0665 13.1463 32H11C11 30.8021 11.2221 29.6159 11.6535 28.5092C12.085 27.4024 12.7174 26.3969 13.5146 25.5498C14.3118 24.7027 15.2583 24.0308 16.2999 23.5724C17.3415 23.114 18.4579 22.878 19.5854 22.878C20.7128 22.878 21.8292 23.114 22.8708 23.5724C23.9125 24.0308 24.8589 24.7027 25.6561 25.5498C26.4534 26.3969 27.0858 27.4024 27.5172 28.5092C27.9487 29.6159 28.1707 30.8021 28.1707 32H26.0244C26.0244 31.0665 25.8512 30.1449 25.5175 29.2888C25.1838 28.4328 24.6978 27.6632 24.0932 27.0208C23.4888 26.3787 22.7784 25.8768 22.0063 25.5369C21.2345 25.1973 20.4123 25.0244 19.5854 25.0244Z" fill="white"/>
<path fill-rule="evenodd" clip-rule="evenodd" d="M19.5853 20.7317C21.956 20.7317 23.8779 18.8098 23.8779 16.439C23.8779 14.0682 21.956 12.1463 19.5853 12.1463C17.2145 12.1463 15.2926 14.0682 15.2926 16.439C15.2926 18.8098 17.2145 20.7317 19.5853 20.7317ZM19.5853 22.878C23.1414 22.878 26.0243 19.9952 26.0243 16.439C26.0243 12.8828 23.1414 10 19.5853 10C16.0291 10 13.1462 12.8828 13.1462 16.439C13.1462 19.9952 16.0291 22.878 19.5853 22.878Z" fill="white"/>
</svg>
