<svg width="40" height="40" viewBox="0 0 40 40" fill="none" xmlns="http://www.w3.org/2000/svg">
<path fill-rule="evenodd" clip-rule="evenodd" d="M0 0V40H40V0H0Z" fill="#002277"/>
<path fill-rule="evenodd" clip-rule="evenodd" d="M19 25C22.3137 25 25 22.3137 25 19C25 15.6863 22.3137 13 19 13C15.6863 13 13 15.6863 13 19C13 22.3137 15.6863 25 19 25ZM19 27C23.4183 27 27 23.4183 27 19C27 14.5817 23.4183 11 19 11C14.5817 11 11 14.5817 11 19C11 23.4183 14.5817 27 19 27Z" fill="white"/>
<path fill-rule="evenodd" clip-rule="evenodd" d="M28.0001 30L23.0001 25L24.4143 23.5858L29.4143 28.5858L28.0001 30Z" fill="white"/>
</svg>
